<svg width="1512" height="412" viewBox="0 0 1512 412" fill="none" xmlns="http://www.w3.org/2000/svg">
<path d="M84 0C44.5744 0 39.4256 38 0 38V412H1680V38C1640.57 38 1635.43 0 1596 0C1556.57 0 1551.43 38 1512 38C1472.57 38 1467.43 0 1428 0C1388.57 0 1383.43 38 1344 38C1304.57 38 1299.43 0 1260 0C1220.57 0 1215.43 38 1176 38C1136.57 38 1131.43 0 1092 0C1052.57 0 1047.43 38 1008 38C968.574 38 963.425 0 924 0C884.574 0 879.425 38 840 38C800.574 38 795.426 0 756 0C716.574 0 711.426 38 672 38C632.574 38 627.426 0 588 0C548.575 0 543.426 38 504 38C464.574 38 459.426 0 420 0C380.574 0 375.426 38 336 38C296.574 38 291.426 0 252 0C212.574 0 207.426 38 168 38C128.574 38 123.426 0 84 0Z" fill="#5462E7"/>
</svg>
